# xmcd CD database file
#
# Track frame offsets:
#	150
#	9788
#	28233
#	41846
#	57223
#	67910
#	89167
#	100341
#	114186
#	125245
#	141664
#	152716
#	165775
#	183588
#	199136
#	219914
#	230959
#	246189
#	259962
#	274186
#
# Disc length: 3818 seconds
#
# Revision: 4
# Processed by: cddbd v1.5.2PL0 Copyright (c) Steve Scherf et al.
# Submitted via: CDex 1.50Beta7
#
DISCID=290ee814
DTITLE=James Last - The Best of Käpt`n James
DYEAR=1998
DGENRE=Easy Listening
TTITLE0=Das ist die Liebe der Matrosen
TTITLE1=La Paloma
TTITLE2=Friesenlied (Wo die Nordseewellen)
TTITLE3=Rolling Home
TTITLE4=Einmal noch nach Bombay
TTITLE5=Ein Schiff wird kommen
TTITLE6=Sie hieß Mary Ann (Sixteen Tones)
TTITLE7=What shall We Do With Drunken Sailor
TTITLE8=Eine Seefaht die ist lustig
TTITLE9=Der Junge von St. Pauli
TTITLE10=Heut' geht an Bord
TTITLE11=Fahr mich in die Ferne
TTITLE12=Biscaya
TTITLE13=My Bonny Lies Over The Ocean
TTITLE14=Medley: Junge Komm bald wieder - Die Gitarre und das Meer - Unter fremden Sternen
TTITLE15=Nimm mich mit Kapitän, auf die Reise
TTITLE16=Kleine Möve, flieg nach Helgoland
TTITLE17=Medley: Wir lieben die Stürme - The Color Flaggs - Hey, Hey, Hey!
TTITLE18=Medley: Good Morning - The Sailor Boy - Blue Britania
TTITLE19=Medley: De Käpt'n, de Stüermann, de Bootsman un ick - When Irish Eyes Are Smiling
EXTD=YEAR: 1998
EXTT0=
EXTT1=
EXTT2=
EXTT3=
EXTT4=
EXTT5=
EXTT6=
EXTT7=
EXTT8=
EXTT9=
EXTT10=
EXTT11=
EXTT12=
EXTT13=
EXTT14=
EXTT15=
EXTT16=
EXTT17=
EXTT18=
EXTT19=
PLAYORDER=
